# xmcd
# 
# Track frame offsets:
#     150
#     24978
#     42734
#     62795
#     88111
#     108722
#     126532
#     153137
#     172840
#     190388
#     205889
#     229116
# 
# Disc length: 3374
# 
# Revision: 5
# Processed by: cddbd v1.5.2PL0 Copyright (c) Steve Scherf et al.
# Submitted via: BonkEnc v1.0.15
# 
DISCID=a60d2c0c
DTITLE=RAY CHARLES - Thanks For Bringing Love Around Again
DYEAR=2002
DGENRE=Soul
TTITLE0=What I'd say
TTITLE1=Can you love me like that
TTITLE2=How did you feel the morning after
TTITLE3=I love you more than I ever have
TTITLE4=Really got a hold on me
TTITLE5=Thanks for bringing love around again
TTITLE6=Save your lovin' just for me
TTITLE7=I just can't get enough of you
TTITLE8=Ensemble
TTITLE9=New Orleans
TTITLE10=Mr. Creole
TTITLE11=Mother
EXTD=
EXTT0=
EXTT1=
EXTT2=
EXTT3=
EXTT4=
EXTT5=
EXTT6=
EXTT7=
EXTT8=
EXTT9=
EXTT10=
EXTT11=
PLAYORDER=
